# Blender 4.0.1
# www.blender.org
mtllib DVD,BD_Case.mtl
o box
v 0.202635 0.374929 -0.001346
v 0.199029 0.380000 -0.001346
v 0.202635 -0.184929 -0.001346
v 0.199029 -0.190000 -0.001346
v -0.199029 0.380000 -0.001346
v -0.199029 -0.190000 -0.001346
v -0.199029 -0.190000 0.016560
v -0.199030 -0.184929 0.021090
v -0.202635 -0.184929 0.017437
v -0.199030 0.374929 0.021090
v -0.199029 0.380000 0.016560
v -0.202635 0.374929 0.017437
v -0.199029 -0.190000 -0.016560
v -0.202635 -0.184929 -0.017437
v -0.199030 -0.184929 -0.021090
v -0.199029 0.380000 -0.016560
v -0.199030 0.374929 -0.021090
v -0.202635 0.374929 -0.017437
v 0.199029 -0.190000 0.016560
v 0.202635 -0.184929 0.017437
v 0.199030 -0.184929 0.021090
v 0.199029 0.380000 0.016560
v 0.199030 0.374929 0.021090
v 0.202635 0.374929 0.017437
v 0.199029 -0.190000 -0.016560
v 0.199030 -0.184929 -0.021090
v 0.202635 -0.184929 -0.017437
v 0.199029 0.380000 -0.016560
v 0.202635 0.374929 -0.017437
v 0.199030 0.374929 -0.021090
v 0.202635 0.374929 0.001090
v -0.199029 0.380000 0.001090
v 0.199029 -0.190000 0.001090
v -0.199029 -0.190000 0.001090
v 0.202635 -0.184929 0.001090
v 0.199029 0.380000 0.001090
v 0.173665 0.367891 0.000025
v -0.199029 0.372834 -0.000194
v 0.170059 -0.182834 -0.000194
v -0.199029 -0.182834 -0.000194
v 0.173665 -0.177891 0.000025
v 0.170059 0.372834 -0.000194
v 0.202635 -0.184929 -0.009391
v 0.202635 -0.184929 0.009264
v 0.202635 0.374929 -0.009391
v 0.202635 0.374929 0.009264
v 0.202635 -0.040000 -0.001346
v 0.202635 -0.040000 0.001090
v 0.173665 -0.040000 0.000025
v 0.202635 -0.040000 -0.009391
v 0.202635 -0.040000 0.009264
v 0.202635 0.230011 -0.001346
v 0.202635 0.230010 0.001090
v 0.173665 0.230011 0.000025
v 0.202635 0.230010 -0.009391
v 0.202635 0.230010 0.009264
v 0.192127 0.230011 -0.000142
v 0.192127 -0.040000 -0.000142
v 0.192127 0.230010 0.002294
v 0.192127 -0.040000 0.002294
v 0.163157 0.230011 0.001229
v 0.163157 -0.040000 0.001229
v 0.192127 0.230010 -0.008188
v 0.192127 -0.040000 -0.008188
v 0.192127 0.230010 0.010468
v 0.192127 -0.040000 0.010468
vn 0.9593 -0.2825 -0.0000
vn 0.3260 0.1570 -0.9322
vn 0.3261 -0.1570 -0.9322
vn 0.9593 0.2825 -0.0000
vn 0.8229 0.2689 0.5006
vn 0.8229 -0.2689 0.5006
vn -0.4515 -0.8275 -0.3338
vn 0.4624 -0.8213 -0.3342
vn 0.0881 -0.1555 0.9839
vn -0.2498 -0.4725 0.8452
vn 0.0889 0.1106 -0.9899
vn -0.2692 0.5072 -0.8187
vn -0.4515 0.8275 0.3338
vn 0.4624 0.8213 0.3342
vn -0.4515 -0.8275 0.3338
vn -0.0462 -0.6655 0.7450
vn -0.6497 -0.5562 0.5182
vn -0.0462 0.6655 0.7450
vn -0.6497 0.5562 0.5182
vn -0.6497 -0.5562 -0.5182
vn -0.0462 -0.6655 -0.7450
vn -0.4515 0.8275 -0.3338
vn -0.0462 0.6655 -0.7450
vn -0.6497 0.5562 -0.5182
vn 0.4624 -0.8213 0.3342
vn 0.4681 -0.3374 0.8167
vn 0.4681 0.3374 0.8167
vn 0.4681 -0.3374 -0.8167
vn 0.8229 -0.2689 -0.5006
vn 0.4624 0.8213 -0.3342
vn 0.8229 0.2689 -0.5006
vn 0.4681 0.3374 -0.8167
vn -0.4366 -0.8868 0.1515
vn -0.2692 -0.5072 -0.8187
vn -0.4366 0.8868 0.1515
vn -0.2498 0.4725 0.8452
vn 0.1699 -0.0556 0.9839
vn 0.1591 0.0384 -0.9865
vn 0.0889 -0.1106 -0.9899
vn 0.0881 0.1555 0.9839
vn 0.1699 0.0556 0.9839
vn 0.1241 -0.8187 0.5607
vn 0.4071 -0.1283 -0.9043
vn 0.5005 -0.0447 0.8646
vn 0.1587 -0.1015 0.9821
vn 0.1592 -0.0384 -0.9865
vn 0.1241 0.8186 0.5607
vn 0.4071 0.1284 -0.9043
vn 0.8479 0.3937 -0.3550
vn 0.1449 -0.0940 -0.9850
vn 0.5005 0.0447 0.8646
vn 0.1450 0.0940 -0.9850
vn 0.1587 0.1015 0.9821
vn 0.8480 -0.3938 -0.3547
vn 0.8480 0.3938 -0.3547
vn 0.1423 -0.2113 -0.9670
vn 0.1423 0.2113 -0.9670
vn 0.0401 0.0516 -0.9979
vn 0.0401 -0.0516 -0.9979
vn 0.2567 0.1605 0.9531
vn 0.2567 -0.1605 0.9531
vt 0.377224 0.717082
vt 0.500000 0.717082
vt 0.561388 0.717082
vt 0.622776 0.717082
vt 0.622776 0.747776
vt 0.377224 0.747776
vt 0.127224 0.502224
vt 0.372776 0.502224
vt 0.372776 0.625000
vt 0.127224 0.625000
vt 0.627224 0.686388
vt 0.872776 0.686388
vt 0.872776 0.747776
vt 0.627224 0.747776
vt 0.127224 0.747776
vt 0.127224 0.750000
vt 0.125000 0.747776
vt 0.622776 0.997776
vt 0.625000 0.997776
vt 0.622776 1.000000
vt 0.125000 0.502224
vt 0.127224 0.500000
vt 0.625000 0.252224
vt 0.622776 0.250000
vt 0.372776 0.747776
vt 0.375000 0.747776
vt 0.372776 0.750000
vt 0.625000 0.752224
vt 0.622776 0.750000
vt 0.372776 0.500000
vt 0.375000 0.502224
vt 0.625000 0.502224
vt 0.622776 0.500000
vt 0.127224 0.655694
vt 0.127224 0.686388
vt 0.625000 0.002224
vt 0.625000 0.063612
vt 0.625000 0.094306
vt 0.625000 0.125000
vt 0.625000 0.247776
vt 0.622776 0.247776
vt 0.622776 0.002224
vt 0.625000 0.497776
vt 0.622776 0.497776
vt 0.622776 0.252224
vt 0.622776 0.502224
vt 0.377224 0.502224
vt 0.377224 0.497776
vt 0.377224 0.563612
vt 0.377224 0.625000
vt 0.622776 0.686388
vt 0.622776 0.752224
vt 0.377224 0.752224
vt 0.372776 0.686388
vt 0.627224 0.502224
vt 0.627224 0.625000
vt 0.622776 0.625000
vt 0.622776 0.563612
vt 0.372776 0.655694
vt 0.377224 0.655694
vt 0.872776 0.502224
vt 0.872776 0.625000
vt 0.561388 0.563612
vt 0.561388 0.625000
vt 0.377224 0.686388
vt 0.627224 0.655694
vt 0.622776 0.655694
vt 0.872776 0.655694
vt 0.561388 0.655694
vt 0.561388 0.686388
vt 0.500000 0.563612
vt 0.500000 0.686388
vt 0.500000 0.625000
vt 0.500000 0.655694
s 1
usemtl Car_plastic_dark
f 44/1/1 51/2/2 56/3/3 46/4/4 24/5/5 20/6/6
f 13/7/7 25/8/8 4/9/9 6/10/10
f 36/11/11 32/12/12 11/13/13 22/14/14
f 7/15/15 8/16/16 9/17/17
f 10/18/18 11/19/13 12/20/19
f 13/7/7 14/21/20 15/22/21
f 16/23/22 17/23/23 18/24/24
f 19/25/25 20/26/6 21/27/26
f 22/28/14 23/28/27 24/29/5
f 25/8/8 26/30/28 27/31/29
f 28/32/30 29/32/31 30/33/32
f 13/7/7 6/10/10 40/34/33 34/35/34 7/15/15 9/17/17 14/21/20
f 11/36/13 32/37/12 38/38/35 5/39/36 16/40/22 18/41/24 12/42/19
f 25/8/8 13/7/7 15/22/21 26/30/28
f 16/23/22 28/43/30 30/44/32 17/45/23
f 29/46/31 27/47/29 26/48/28 30/44/32
f 4/9/9 25/8/8 27/47/29 43/49/1 3/50/37
f 36/11/11 22/14/14 24/5/5 46/4/4 31/51/38
f 23/52/27 21/53/26 20/6/6 24/5/5
f 7/15/15 19/25/25 21/27/26 8/16/16
f 22/28/14 11/19/13 10/18/18 23/52/27
f 34/35/34 33/54/39 19/25/25 7/15/15
f 28/55/30 2/56/40 1/57/41 45/58/4 29/46/31
f 39/59/42 4/9/9 3/50/37 41/60/43
f 28/55/30 16/61/22 5/62/36 2/56/40
f 55/63/44 45/58/4 1/57/41 52/64/45
f 19/25/25 33/54/39 35/65/46 44/1/1 20/6/6
f 40/34/33 39/59/42 33/54/39 34/35/34
f 42/66/47 36/11/11 31/51/38 37/67/48
f 42/66/47 38/68/35 32/12/12 36/11/11
f 54/69/49 37/67/48 31/51/38 53/70/50
f 52/64/45 1/57/41 37/67/48 54/69/49
f 2/56/40 5/62/36 38/68/35 42/66/47
f 2/56/40 42/66/47 37/67/48 1/57/41
f 6/10/10 4/9/9 39/59/42 40/34/33
f 33/54/39 39/59/42 41/60/43 35/65/46
f 27/47/29 29/46/31 45/58/4 55/63/44 50/71/51 43/49/1
f 53/70/50 31/51/38 46/4/4 56/3/3
f 35/65/46 48/72/52 51/2/2 44/1/1
f 3/50/37 47/73/53 49/74/54 41/60/43
f 41/60/43 49/74/54 48/72/52 35/65/46
f 43/49/1 50/71/51 47/73/53 3/50/37
f 49/74/54 47/73/53 58/73/45 62/74/55
f 54/69/49 53/70/50 59/70/56 61/69/54
f 51/2/2 48/72/52 60/72/57 66/2/58
f 52/64/45 54/69/49 61/69/54 57/64/53
f 60/72/57 59/70/56 65/3/59 66/2/58
f 58/73/45 57/64/53 61/69/54 62/74/55
f 62/74/55 61/69/54 59/70/56 60/72/57
f 64/71/60 63/63/61 57/64/53 58/73/45
f 50/71/51 55/63/44 63/63/61 64/71/60
f 55/63/44 52/64/45 57/64/53 63/63/61
f 48/72/52 49/74/54 62/74/55 60/72/57
f 53/70/50 56/3/3 65/3/59 59/70/56
f 56/3/3 51/2/2 66/2/58 65/3/59
f 47/73/53 50/71/51 64/71/60 58/73/45
o label
v -0.199030 -0.184929 0.021090
v -0.202635 -0.184929 0.017437
v -0.199030 0.374929 0.021090
v -0.202635 0.374929 0.017437
v -0.202635 -0.184929 -0.017437
v -0.199030 -0.184929 -0.021090
v -0.199030 0.374929 -0.021090
v -0.202635 0.374929 -0.017437
v 0.199030 -0.184929 0.021090
v 0.199030 0.374929 0.021090
v 0.199030 -0.184929 -0.021090
v 0.199030 0.374929 -0.021090
vn -0.0000 -0.0000 1.0000
vn -0.0935 -0.0000 0.9956
vn -0.8972 -0.0000 0.4416
vn -0.8972 -0.0000 -0.4416
vn -0.0935 -0.0000 -0.9956
vn -0.0000 -0.0000 -1.0000
vt 0.999900 0.000100
vt 0.999900 0.999900
vt 0.000100 0.999900
vt 0.000100 0.000100
vt 0.918221 -0.000524
vt 0.918221 0.999892
vt 0.081779 0.999892
vt 0.081779 -0.000524
vt 0.999916 0.000084
vt 0.999916 1.001544
vt 0.000084 1.001543
vt 0.000084 0.000084
vt -0.006295 -0.000524
vt -0.006295 0.999892
vt 0.081779 0.999892
vt 0.081779 -0.000524
vt 0.992009 0.999892
vt 0.992009 -0.000524
vt 0.918221 -0.000524
vt 0.918221 0.999892
s 1
usemtl cover
f 75/75/62 76/76/62 69/77/63 67/78/63
usemtl spine
f 68/79/64 70/80/64 74/81/65 71/82/65
f 67/87/63 69/88/63 70/89/64 68/90/64
f 73/91/66 72/92/66 71/93/65 74/94/65
usemtl back
f 72/83/66 73/84/66 78/85/67 77/86/67
